TITLE:   TTF_PIX LOCK_021518_SND-PIX-MX
FCM: NON-DROP FRAME
000001  MAIN_TITLE.03        V     C        01:00:45:10 01:00:50:15 01:02:25:19 01:02:31:00 
*TITLE, TITLE 
*FROM CLIP NAME:  MAIN TITLE.03
000002  A107C003_171111_R1GQ V     C        22:39:46:01 22:39:51:06 01:29:09:03 01:29:14:08 
*FROM CLIP NAME:  TTF_031_010 
*LOC: 01:29:11:07 MAGENTA VFX - TTF_031_010
000003  A024C006_171027_R1GQ V     C        12:33:12:10 12:33:14:03 01:37:02:01 01:37:03:18 
*FROM CLIP NAME:  TTF_057_010 
*LOC: 01:37:03:03 MAGENTA VFX - TTF_057_010
000004  A130C007_171116_R1GQ V     C        15:16:25:08 15:16:28:00 01:54:02:20 01:54:06:08 
M2      A130C007_171116_R1GQ          018.0 15:16:25:08 
*FROM CLIP NAME:  TTF_080_010 
*LOC: 01:54:05:01 MAGENTA VFX - TTF_080_010
000005  A133C003_171116_R1GQ V     C        20:07:35:04 20:07:39:23 01:54:22:04 01:54:26:23 
*FROM CLIP NAME:  TTF_080_020 
*LOC: 01:54:23:18 MAGENTA VFX - TTF_080_020
000006  A134C003_171116_R1GQ V     C        20:47:27:13 20:47:29:10 01:54:26:23 01:54:28:20 
*FROM CLIP NAME:  TTF_080_030 
*LOC: 01:54:27:16 MAGENTA VFX - TTF_080_030
000007  A134C002_171116_R1GQ V     C        20:46:02:20 20:46:05:01 01:54:29:20 01:54:32:01 
*FROM CLIP NAME:  TTF_080_040 
*LOC: 01:54:30:15 MAGENTA VFX - TTF_080_040
000008  A143C012_171118_R1GQ V     C        20:12:17:13 20:12:21:19 01:58:10:16 01:58:14:22 
*FROM CLIP NAME:  TTF_087_010 
*LOC: 01:58:13:14 MAGENTA VFX - TTF_087_010
000009  A145C007_171118_R1GQ V     C        22:41:13:21 22:41:15:09 01:59:28:07 01:59:29:19 
*FROM CLIP NAME:  TTF_090_010 
*LOC: 01:59:28:22 MAGENTA VXF - TTF_090_010
000010  A145C007_171118_R1GQ V     C        22:40:51:23 22:40:56:05 01:59:53:11 01:59:57:17 
*FROM CLIP NAME:  TTF_090_020 
*LOC: 01:59:55:16 MAGENTA VFX - TTF_090_020
000011  A027C001_171027_R1GQ V     C        16:43:06:15 16:43:08:12 02:10:38:06 02:10:40:03 
*IMAGE, STABILIZE 
*FROM CLIP NAME:  TTF_110_010 
*LOC: 02:10:38:23 MAGENTA TTF_110_010
000012  A091C003_171109_R1GQ V     C        13:17:12:12 13:17:21:02 02:12:40:17 02:12:49:07 
*FROM CLIP NAME:  TTF_120_010 
*LOC: 02:12:44:01 MAGENTA TTF_120_010
000013  A036C001_171028_R1GQ V     C        23:59:03:01 23:59:06:07 02:20:51:07 02:20:54:13 
*FROM CLIP NAME:  TTF_130_010 
*LOC: 02:20:52:13 MAGENTA VFX - TTF_130_010
000014  A086C008_171108_R1GQ V     C        16:44:05:15 16:44:14:12 02:24:20:11 02:24:29:08 
*FROM CLIP NAME:  TTF_137_010 
*LOC: 02:24:25:04 MAGENTA VFX - TTF_137_010
000015  A086C009_171108_R1GQ V     C        16:51:48:20 16:51:55:05 02:24:37:02 02:24:43:11 
*FROM CLIP NAME:  TTF_137_020 
*LOC: 02:24:40:00 MAGENTA VFX - TTF_137_020
000016  A087C004_171108_R1GQ V     C        18:33:25:13 18:33:48:19 02:27:03:10 02:27:26:16 
*FROM CLIP NAME:  TTF_139_010 
*LOC: 02:27:10:21 MAGENTA VFX - TTF_139_010
